<svg width="40" height="40" viewBox="0 0 98 98" fill="none" xmlns="http://www.w3.org/2000/svg">
<path d="M17.0002 48.8247C17.0969 31.185 31.5353 16.9039 49.175 17.0005C66.8148 17.0971 81.0959 31.5356 80.9993 49.1753C80.9026 66.815 66.4642 81.0962 48.8245 80.9995C31.1847 80.9029 16.9036 66.4644 17.0002 48.8247ZM9.00035 48.7809C8.87939 70.8606 26.701 88.8785 48.7806 88.9994C70.8603 89.1204 88.8782 71.2988 88.9991 49.2191C89.1201 27.1395 71.2985 9.12156 49.2189 9.00061C27.1392 8.87966 9.1213 26.7012 9.00035 48.7809ZM49.0217 45.0001L33.0219 44.9124L32.9781 52.9123L48.9778 52.9999L48.9121 64.9998L64.9995 49.0877L49.0874 33.0002L49.0217 45.0001Z" fill="#C2C0C0"/>
</svg>
