<svg width="51" height="46" viewBox="0 0 51 46" fill="none" xmlns="http://www.w3.org/2000/svg">
<path d="M48.0099 0.00557605C43.1577 0.324905 33.5136 1.48722 27.56 5.71345C27.1491 6.00506 26.9162 6.52358 26.9162 7.06572V44.4272C26.9162 45.6131 28.0345 46.3627 28.9775 45.8123C35.103 42.2371 43.9617 41.2616 48.3419 40.9947C49.8374 40.9033 51 39.513 51 37.8465V3.15779C51.0009 1.33936 49.6409 -0.101209 48.0099 0.00557605ZM23.44 5.71345C17.4873 1.48722 7.84316 0.325932 2.99099 0.00557605C1.36002 -0.101209 0 1.33936 0 3.15779V37.8476C0 39.5151 1.16257 40.9053 2.65807 40.9957C7.04007 41.2626 15.9032 42.2391 22.0287 45.8164C22.969 46.3657 24.0838 45.6172 24.0838 44.4344V7.04724C24.0838 6.50407 23.8518 6.00608 23.44 5.71345Z" fill="black"/>
</svg>
