<svg width="146" height="146" viewBox="0 0 146 146" fill="none" xmlns="http://www.w3.org/2000/svg">
<circle cx="73" cy="73" r="72.5" stroke="black"/>
<path d="M95.5291 45.159L61.1573 55.3099C60.4596 55.5291 59.85 55.9651 59.417 56.5545C58.9841 57.144 58.7504 57.8562 58.75 58.5875V86.6703C57.6244 86.3971 56.4708 86.2558 55.3125 86.2492C49.6191 86.2492 45 89.3281 45 93.1246C45 96.9211 49.6191 100 55.3125 100C61.0059 100 65.625 96.9211 65.625 93.1246V68.0208L93.125 59.9637V79.796C91.9995 79.5218 90.8459 79.3801 89.6875 79.3738C83.9941 79.3738 79.375 82.4527 79.375 86.2492C79.375 90.0457 83.9941 93.1246 89.6875 93.1246C95.3809 93.1246 100 90.0468 100 86.2492V48.4345C99.9995 47.8948 99.872 47.3629 99.6277 46.8816C99.3834 46.4004 99.0293 45.9835 98.594 45.6645C98.1586 45.3456 97.6543 45.1336 97.1219 45.0458C96.5894 44.958 96.0438 44.9968 95.5291 45.159Z" fill="black"/>
</svg>
