<svg width="146" height="146" viewBox="0 0 146 146" fill="none" xmlns="http://www.w3.org/2000/svg">
<circle cx="73" cy="73" r="72.5" stroke="black"/>
<path d="M58.1808 74.1222C53.6398 75.4488 50.5935 79.3526 50.8997 83.5293C52.3425 81.9145 54.546 80.5206 57.2152 79.604L58.1808 74.1222ZM44.1262 80.4507L40.1104 57.6616C40.0737 57.456 40.1458 57.329 40.1407 57.3252C47.4509 53.2552 55.723 51.1033 64.0621 51.1033C64.2659 51.1033 64.4709 51.1249 64.676 51.1274C66.4415 49.4174 68.6918 48.2291 71.2053 47.8267C73.596 47.4433 76.0209 47.2491 78.4421 47.1513C77.1777 45.3803 75.3438 44.0753 73.1556 43.7236C70.1295 43.2399 67.0882 43 64.0609 43C54.3587 43 44.7856 45.4654 36.2021 50.2439C33.1432 51.9476 31.5042 55.5022 32.1332 59.0695L36.149 81.8586C37.95 92.0808 53.4031 99.8959 62.0245 99.8959C62.4789 99.8959 62.8788 99.8375 63.2914 99.7944C61.5803 97.626 59.6287 94.6554 58.2922 91.215C52.2666 89.5671 44.8691 84.6617 44.1262 80.4507ZM56.4722 63C56.3799 62.4769 56.19 62.0009 55.9571 61.5527C54.913 62.6839 53.3411 63.5522 51.487 63.8785C49.6329 64.206 47.8585 63.9292 46.4903 63.2221C46.4245 63.7223 46.4093 64.2352 46.5017 64.7582C46.9877 67.5131 49.6126 69.3526 52.3666 68.8677C55.1193 68.3827 56.9582 65.7548 56.4722 63ZM108.798 58.3485C97.5364 52.0796 84.5702 49.7906 71.8444 51.8295C68.388 52.383 65.6328 55.1632 65.005 58.7306L60.9892 81.5197C59.0414 92.5708 73.048 106.436 81.0252 107.843C89.0024 109.251 106.903 101.014 108.851 89.9632L112.867 67.1741C113.496 63.6055 111.857 60.0509 108.798 58.3485ZM74.2162 70.6374C74.7022 67.8825 77.3271 66.043 80.081 66.5292C82.835 67.0154 84.6727 69.6421 84.188 72.3969C84.0956 72.92 83.9057 73.396 83.6729 73.8442C82.6287 72.713 81.0568 71.8447 79.2027 71.5184C77.3486 71.1909 75.5742 71.4676 74.2061 72.1748C74.139 71.6733 74.1238 71.1604 74.2162 70.6374ZM83.135 95.8703C76.088 94.6274 71.2989 88.3459 71.8659 81.5374C74.4731 84.7798 78.98 87.3988 84.4575 88.3649C89.9351 89.331 95.0659 88.4119 98.6236 86.2575C96.8289 92.8514 90.1806 97.1131 83.135 95.8703ZM99.6259 76.6574C98.5818 75.5263 97.0086 74.6579 95.1545 74.3317C93.3004 74.0041 91.526 74.2809 90.1579 74.988C90.0921 74.4878 90.0769 73.9749 90.1693 73.4519C90.6553 70.697 93.2801 68.8575 96.0341 69.3425C98.7868 69.8287 100.626 72.4553 100.141 75.2102C100.049 75.7345 99.8588 76.2106 99.6259 76.6574Z" fill="black"/>
</svg>
