<svg width="146" height="146" viewBox="0 0 146 146" fill="none" xmlns="http://www.w3.org/2000/svg">
<circle cx="73" cy="73" r="72.5" stroke="#5C61D0"/>
<path d="M110.325 37H34.675C32.9047 37 31.2069 37.7013 29.9551 38.9496C28.7033 40.1979 28 41.8909 28 43.6562V88.0312C28 89.7966 28.7033 91.4896 29.9551 92.7379C31.2069 93.9862 32.9047 94.6875 34.675 94.6875H68.05V99.125H43.575C42.9849 99.125 42.419 99.3588 42.0017 99.7749C41.5844 100.191 41.35 100.755 41.35 101.344V105.781C41.35 106.37 41.5844 106.934 42.0017 107.35C42.419 107.766 42.9849 108 43.575 108H101.425C102.015 108 102.581 107.766 102.998 107.35C103.416 106.934 103.65 106.37 103.65 105.781V101.344C103.65 100.755 103.416 100.191 102.998 99.7749C102.581 99.3588 102.015 99.125 101.425 99.125H76.95V94.6875H110.325C112.095 94.6875 113.793 93.9862 115.045 92.7379C116.297 91.4896 117 89.7966 117 88.0312V43.6562C117 41.8909 116.297 40.1979 115.045 38.9496C113.793 37.7013 112.095 37 110.325 37ZM108.1 85.8125H36.9V45.875H108.1V85.8125Z" fill="black"/>
</svg>
